<?xml version="1.0" encoding="UTF-8" standalone="no"?><!DOCTYPE svg PUBLIC "-//W3C//DTD SVG 1.1//EN" "http://www.w3.org/Graphics/SVG/1.1/DTD/svg11.dtd"><!-- Generated by graphviz version 2.40.1 (20161225.0304)
 --><!-- Title: %0 Pages: 1 --><svg xmlns="http://www.w3.org/2000/svg" xmlns:xlink="http://www.w3.org/1999/xlink" width="736pt" height="1373pt" viewBox="0.00 0.00 735.51 1373.00">
<g id="graph0" class="graph" transform="scale(1 1) rotate(0) translate(4 1369)">
<title>%0</title>
<polygon fill="#ffffff" stroke="transparent" points="-4,4 -4,-1369 731.5086,-1369 731.5086,4 -4,4"/>
<text text-anchor="middle" x="363.7543" y="-1348.4" font-family="Times,serif" font-size="14.00" fill="#000000">reserve</text>
<!-- 0 -->
<g id="node1" class="node">
<title>0</title>
<ellipse fill="none" stroke="#000000" cx="207.7543" cy="-1322.2" rx="41.7308" ry="18"/>
<text text-anchor="middle" x="207.7543" y="-1318" font-family="Times,serif" font-size="14.00" fill="#000000">START</text>
</g>
<!-- 1 -->
<g id="node2" class="node">
<title>1</title>
<ellipse fill="none" stroke="#000000" cx="207.7543" cy="-1249.2" rx="102.5092" ry="18"/>
<text text-anchor="middle" x="207.7543" y="-1245" font-family="Times,serif" font-size="14.00" fill="#000000">INVOKE_SPLIT_FUN</text>
</g>
<!-- 0&#45;&gt;1 -->
<g id="edge1" class="edge">
<title>0-&gt;1</title>
<path fill="none" stroke="#000000" d="M207.7543,-1304.1551C207.7543,-1296.0828 207.7543,-1286.3764 207.7543,-1277.3817"/>
<polygon fill="#000000" stroke="#000000" points="211.2544,-1277.2903 207.7543,-1267.2904 204.2544,-1277.2904 211.2544,-1277.2903"/>
</g>
<!-- 2 -->
<g id="node3" class="node">
<title>2</title>
<ellipse fill="none" stroke="#000000" cx="207.7543" cy="-1176.2" rx="102.5092" ry="18"/>
<text text-anchor="middle" x="207.7543" y="-1172" font-family="Times,serif" font-size="14.00" fill="#000000">INVOKE_SPLIT_FUN</text>
</g>
<!-- 1&#45;&gt;2 -->
<g id="edge2" class="edge">
<title>1-&gt;2</title>
<path fill="none" stroke="#000000" d="M207.7543,-1231.1551C207.7543,-1223.0828 207.7543,-1213.3764 207.7543,-1204.3817"/>
<polygon fill="#000000" stroke="#000000" points="211.2544,-1204.2903 207.7543,-1194.2904 204.2544,-1204.2904 211.2544,-1204.2903"/>
</g>
<!-- 3 -->
<g id="node4" class="node">
<title>3</title>
<polygon fill="#9bcd9b" stroke="#000000" points="282.7615,-1121.2 132.7471,-1121.2 132.7471,-1085.2 282.7615,-1085.2 282.7615,-1121.2"/>
<text text-anchor="middle" x="207.7543" y="-1099" font-family="Times,serif" font-size="14.00" fill="#000000">INVOKE_EXTERNAL</text>
</g>
<!-- 2&#45;&gt;3 -->
<g id="edge3" class="edge">
<title>2-&gt;3</title>
<path fill="none" stroke="#000000" d="M207.7543,-1158.1551C207.7543,-1150.0828 207.7543,-1140.3764 207.7543,-1131.3817"/>
<polygon fill="#000000" stroke="#000000" points="211.2544,-1131.2903 207.7543,-1121.2904 204.2544,-1131.2904 211.2544,-1131.2903"/>
</g>
<!-- 4 -->
<g id="node5" class="node">
<title>4</title>
<polygon fill="#87cefa" stroke="#000000" points="294.2965,-1048.2 121.2121,-1048.2 121.2121,-1012.2 294.2965,-1012.2 294.2965,-1048.2"/>
<text text-anchor="middle" x="207.7543" y="-1026" font-family="Times,serif" font-size="14.00" fill="#000000">INVOKE_CONDITIONAL</text>
</g>
<!-- 3&#45;&gt;4 -->
<g id="edge4" class="edge">
<title>3-&gt;4</title>
<path fill="none" stroke="#000000" d="M207.7543,-1085.1551C207.7543,-1077.0828 207.7543,-1067.3764 207.7543,-1058.3817"/>
<polygon fill="#000000" stroke="#000000" points="211.2544,-1058.2903 207.7543,-1048.2904 204.2544,-1058.2904 211.2544,-1058.2903"/>
</g>
<!-- 24 -->
<g id="node6" class="node">
<title>24</title>
<ellipse fill="none" stroke="#000000" cx="102.7543" cy="-941.4" rx="102.5092" ry="18"/>
<text text-anchor="middle" x="102.7543" y="-937.2" font-family="Times,serif" font-size="14.00" fill="#000000">INVOKE_SPLIT_FUN</text>
</g>
<!-- 4&#45;&gt;24 -->
<g id="edge5" class="edge">
<title>4-&gt;24</title>
<path fill="none" stroke="#006400" stroke-dasharray="1,5" d="M186.2526,-1012.0157C170.5781,-998.7595 149.16,-980.6459 131.9407,-966.0833"/>
<polygon fill="#006400" stroke="#006400" points="133.7641,-963.0416 123.8684,-959.2565 129.2438,-968.3865 133.7641,-963.0416"/>
<text text-anchor="middle" x="169.0306" y="-981.6" font-family="Times,serif" font-size="14.00" fill="#000000">T</text>
</g>
<!-- 5 -->
<g id="node8" class="node">
<title>5</title>
<ellipse fill="none" stroke="#000000" cx="312.7543" cy="-941.4" rx="89.205" ry="18"/>
<text text-anchor="middle" x="312.7543" y="-937.2" font-family="Times,serif" font-size="14.00" fill="#000000">REQUEST_STATE</text>
</g>
<!-- 4&#45;&gt;5 -->
<g id="edge6" class="edge">
<title>4-&gt;5</title>
<path fill="none" stroke="#dc143c" stroke-dasharray="1,5" d="M229.256,-1012.0157C245.0337,-998.6723 266.6307,-980.4074 283.9072,-965.7964"/>
<polygon fill="#dc143c" stroke="#dc143c" points="286.6215,-968.0847 291.9969,-958.9548 282.1013,-962.7399 286.6215,-968.0847"/>
<text text-anchor="middle" x="273.6456" y="-981.6" font-family="Times,serif" font-size="14.00" fill="#000000">F</text>
</g>
<!-- 25 -->
<g id="node7" class="node">
<title>25</title>
<ellipse fill="none" stroke="#000000" cx="102.7543" cy="-868.4" rx="49.8175" ry="18"/>
<text text-anchor="middle" x="102.7543" y="-864.2" font-family="Times,serif" font-size="14.00" fill="#000000">RETURN</text>
</g>
<!-- 24&#45;&gt;25 -->
<g id="edge7" class="edge">
<title>24-&gt;25</title>
<path fill="none" stroke="#000000" d="M102.7543,-923.3551C102.7543,-915.2828 102.7543,-905.5764 102.7543,-896.5817"/>
<polygon fill="#000000" stroke="#000000" points="106.2544,-896.4903 102.7543,-886.4904 99.2544,-896.4904 106.2544,-896.4903"/>
</g>
<!-- 6 -->
<g id="node9" class="node">
<title>6</title>
<ellipse fill="none" stroke="#000000" cx="312.7543" cy="-868.4" rx="102.5092" ry="18"/>
<text text-anchor="middle" x="312.7543" y="-864.2" font-family="Times,serif" font-size="14.00" fill="#000000">INVOKE_SPLIT_FUN</text>
</g>
<!-- 5&#45;&gt;6 -->
<g id="edge8" class="edge">
<title>5-&gt;6</title>
<path fill="none" stroke="#000000" d="M312.7543,-923.3551C312.7543,-915.2828 312.7543,-905.5764 312.7543,-896.5817"/>
<polygon fill="#000000" stroke="#000000" points="316.2544,-896.4903 312.7543,-886.4904 309.2544,-896.4904 316.2544,-896.4903"/>
</g>
<!-- 7 -->
<g id="node10" class="node">
<title>7</title>
<polygon fill="#87cefa" stroke="#000000" points="399.2965,-813.4 226.2121,-813.4 226.2121,-777.4 399.2965,-777.4 399.2965,-813.4"/>
<text text-anchor="middle" x="312.7543" y="-791.2" font-family="Times,serif" font-size="14.00" fill="#000000">INVOKE_CONDITIONAL</text>
</g>
<!-- 6&#45;&gt;7 -->
<g id="edge9" class="edge">
<title>6-&gt;7</title>
<path fill="none" stroke="#000000" d="M312.7543,-850.3551C312.7543,-842.2828 312.7543,-832.5764 312.7543,-823.5817"/>
<polygon fill="#000000" stroke="#000000" points="316.2544,-823.4903 312.7543,-813.4904 309.2544,-823.4904 316.2544,-823.4903"/>
</g>
<!-- 22 -->
<g id="node11" class="node">
<title>22</title>
<ellipse fill="none" stroke="#000000" cx="200.7543" cy="-706.6" rx="102.5092" ry="18"/>
<text text-anchor="middle" x="200.7543" y="-702.4" font-family="Times,serif" font-size="14.00" fill="#000000">INVOKE_SPLIT_FUN</text>
</g>
<!-- 7&#45;&gt;22 -->
<g id="edge10" class="edge">
<title>7-&gt;22</title>
<path fill="none" stroke="#006400" stroke-dasharray="1,5" d="M289.8192,-777.2157C272.9476,-763.839 249.8378,-745.5162 231.3866,-730.8871"/>
<polygon fill="#006400" stroke="#006400" points="233.2865,-727.9267 223.276,-724.4565 228.9375,-733.4119 233.2865,-727.9267"/>
<text text-anchor="middle" x="272.0306" y="-746.8" font-family="Times,serif" font-size="14.00" fill="#000000">T</text>
</g>
<!-- 8 -->
<g id="node13" class="node">
<title>8</title>
<ellipse fill="none" stroke="#000000" cx="424.7543" cy="-706.6" rx="102.5092" ry="18"/>
<text text-anchor="middle" x="424.7543" y="-702.4" font-family="Times,serif" font-size="14.00" fill="#000000">INVOKE_SPLIT_FUN</text>
</g>
<!-- 7&#45;&gt;8 -->
<g id="edge11" class="edge">
<title>7-&gt;8</title>
<path fill="none" stroke="#dc143c" stroke-dasharray="1,5" d="M335.6894,-777.2157C352.561,-763.839 375.6708,-745.5162 394.122,-730.8871"/>
<polygon fill="#dc143c" stroke="#dc143c" points="396.5711,-733.4119 402.2326,-724.4565 392.2222,-727.9267 396.5711,-733.4119"/>
<text text-anchor="middle" x="383.6456" y="-746.8" font-family="Times,serif" font-size="14.00" fill="#000000">F</text>
</g>
<!-- 23 -->
<g id="node12" class="node">
<title>23</title>
<ellipse fill="none" stroke="#000000" cx="200.7543" cy="-633.6" rx="49.8175" ry="18"/>
<text text-anchor="middle" x="200.7543" y="-629.4" font-family="Times,serif" font-size="14.00" fill="#000000">RETURN</text>
</g>
<!-- 22&#45;&gt;23 -->
<g id="edge12" class="edge">
<title>22-&gt;23</title>
<path fill="none" stroke="#000000" d="M200.7543,-688.5551C200.7543,-680.4828 200.7543,-670.7764 200.7543,-661.7817"/>
<polygon fill="#000000" stroke="#000000" points="204.2544,-661.6903 200.7543,-651.6904 197.2544,-661.6904 204.2544,-661.6903"/>
</g>
<!-- 9 -->
<g id="node14" class="node">
<title>9</title>
<ellipse fill="none" stroke="#000000" cx="424.7543" cy="-633.6" rx="102.5092" ry="18"/>
<text text-anchor="middle" x="424.7543" y="-629.4" font-family="Times,serif" font-size="14.00" fill="#000000">INVOKE_SPLIT_FUN</text>
</g>
<!-- 8&#45;&gt;9 -->
<g id="edge13" class="edge">
<title>8-&gt;9</title>
<path fill="none" stroke="#000000" d="M424.7543,-688.5551C424.7543,-680.4828 424.7543,-670.7764 424.7543,-661.7817"/>
<polygon fill="#000000" stroke="#000000" points="428.2544,-661.6903 424.7543,-651.6904 421.2544,-661.6904 428.2544,-661.6903"/>
</g>
<!-- 10 -->
<g id="node15" class="node">
<title>10</title>
<polygon fill="#9bcd9b" stroke="#000000" points="499.7615,-578.6 349.7471,-578.6 349.7471,-542.6 499.7615,-542.6 499.7615,-578.6"/>
<text text-anchor="middle" x="424.7543" y="-556.4" font-family="Times,serif" font-size="14.00" fill="#000000">INVOKE_EXTERNAL</text>
</g>
<!-- 9&#45;&gt;10 -->
<g id="edge14" class="edge">
<title>9-&gt;10</title>
<path fill="none" stroke="#000000" d="M424.7543,-615.5551C424.7543,-607.4828 424.7543,-597.7764 424.7543,-588.7817"/>
<polygon fill="#000000" stroke="#000000" points="428.2544,-588.6903 424.7543,-578.6904 421.2544,-588.6904 428.2544,-588.6903"/>
</g>
<!-- 11 -->
<g id="node16" class="node">
<title>11</title>
<polygon fill="#87cefa" stroke="#000000" points="511.2965,-505.6 338.2121,-505.6 338.2121,-469.6 511.2965,-469.6 511.2965,-505.6"/>
<text text-anchor="middle" x="424.7543" y="-483.4" font-family="Times,serif" font-size="14.00" fill="#000000">INVOKE_CONDITIONAL</text>
</g>
<!-- 10&#45;&gt;11 -->
<g id="edge15" class="edge">
<title>10-&gt;11</title>
<path fill="none" stroke="#000000" d="M424.7543,-542.5551C424.7543,-534.4828 424.7543,-524.7764 424.7543,-515.7817"/>
<polygon fill="#000000" stroke="#000000" points="428.2544,-515.6903 424.7543,-505.6904 421.2544,-515.6904 428.2544,-515.6903"/>
</g>
<!-- 20 -->
<g id="node17" class="node">
<title>20</title>
<ellipse fill="none" stroke="#000000" cx="312.7543" cy="-398.8" rx="102.5092" ry="18"/>
<text text-anchor="middle" x="312.7543" y="-394.6" font-family="Times,serif" font-size="14.00" fill="#000000">INVOKE_SPLIT_FUN</text>
</g>
<!-- 11&#45;&gt;20 -->
<g id="edge16" class="edge">
<title>11-&gt;20</title>
<path fill="none" stroke="#006400" stroke-dasharray="1,5" d="M401.8192,-469.4157C384.9476,-456.039 361.8378,-437.7162 343.3866,-423.0871"/>
<polygon fill="#006400" stroke="#006400" points="345.2865,-420.1267 335.276,-416.6565 340.9375,-425.6119 345.2865,-420.1267"/>
<text text-anchor="middle" x="384.0306" y="-439" font-family="Times,serif" font-size="14.00" fill="#000000">T</text>
</g>
<!-- 12 -->
<g id="node19" class="node">
<title>12</title>
<ellipse fill="none" stroke="#000000" cx="536.7543" cy="-398.8" rx="102.5092" ry="18"/>
<text text-anchor="middle" x="536.7543" y="-394.6" font-family="Times,serif" font-size="14.00" fill="#000000">INVOKE_SPLIT_FUN</text>
</g>
<!-- 11&#45;&gt;12 -->
<g id="edge17" class="edge">
<title>11-&gt;12</title>
<path fill="none" stroke="#dc143c" stroke-dasharray="1,5" d="M447.6894,-469.4157C464.561,-456.039 487.6708,-437.7162 506.122,-423.0871"/>
<polygon fill="#dc143c" stroke="#dc143c" points="508.5711,-425.6119 514.2326,-416.6565 504.2222,-420.1267 508.5711,-425.6119"/>
<text text-anchor="middle" x="495.6456" y="-439" font-family="Times,serif" font-size="14.00" fill="#000000">F</text>
</g>
<!-- 21 -->
<g id="node18" class="node">
<title>21</title>
<ellipse fill="none" stroke="#000000" cx="312.7543" cy="-325.8" rx="49.8175" ry="18"/>
<text text-anchor="middle" x="312.7543" y="-321.6" font-family="Times,serif" font-size="14.00" fill="#000000">RETURN</text>
</g>
<!-- 20&#45;&gt;21 -->
<g id="edge18" class="edge">
<title>20-&gt;21</title>
<path fill="none" stroke="#000000" d="M312.7543,-380.7551C312.7543,-372.6828 312.7543,-362.9764 312.7543,-353.9817"/>
<polygon fill="#000000" stroke="#000000" points="316.2544,-353.8903 312.7543,-343.8904 309.2544,-353.8904 316.2544,-353.8903"/>
</g>
<!-- 13 -->
<g id="node20" class="node">
<title>13</title>
<polygon fill="#87cefa" stroke="#000000" points="623.2965,-343.8 450.2121,-343.8 450.2121,-307.8 623.2965,-307.8 623.2965,-343.8"/>
<text text-anchor="middle" x="536.7543" y="-321.6" font-family="Times,serif" font-size="14.00" fill="#000000">INVOKE_CONDITIONAL</text>
</g>
<!-- 12&#45;&gt;13 -->
<g id="edge19" class="edge">
<title>12-&gt;13</title>
<path fill="none" stroke="#000000" d="M536.7543,-380.7551C536.7543,-372.6828 536.7543,-362.9764 536.7543,-353.9817"/>
<polygon fill="#000000" stroke="#000000" points="540.2544,-353.8903 536.7543,-343.8904 533.2544,-353.8904 540.2544,-353.8903"/>
</g>
<!-- 16 -->
<g id="node21" class="node">
<title>16</title>
<ellipse fill="none" stroke="#000000" cx="400.7543" cy="-237" rx="102.5092" ry="18"/>
<text text-anchor="middle" x="400.7543" y="-232.8" font-family="Times,serif" font-size="14.00" fill="#000000">INVOKE_SPLIT_FUN</text>
</g>
<!-- 13&#45;&gt;16 -->
<g id="edge20" class="edge">
<title>13-&gt;16</title>
<path fill="none" stroke="#006400" stroke-dasharray="1,5" d="M508.9045,-307.6157C487.9113,-293.9084 458.9639,-275.0075 436.3,-260.2093"/>
<polygon fill="#006400" stroke="#006400" points="437.9267,-257.0914 427.64,-254.5548 434.0997,-262.9526 437.9267,-257.0914"/>
<text text-anchor="middle" x="486.0306" y="-277.2" font-family="Times,serif" font-size="14.00" fill="#000000">T</text>
</g>
<!-- 14 -->
<g id="node25" class="node">
<title>14</title>
<ellipse fill="none" stroke="#000000" cx="624.7543" cy="-237" rx="102.5092" ry="18"/>
<text text-anchor="middle" x="624.7543" y="-232.8" font-family="Times,serif" font-size="14.00" fill="#000000">INVOKE_SPLIT_FUN</text>
</g>
<!-- 13&#45;&gt;14 -->
<g id="edge21" class="edge">
<title>13-&gt;14</title>
<path fill="none" stroke="#dc143c" stroke-dasharray="1,5" d="M554.988,-307.4006C568.0206,-294.2495 585.7097,-276.3995 600.0149,-261.9643"/>
<polygon fill="#dc143c" stroke="#dc143c" points="602.5915,-264.3366 607.1445,-254.7699 597.6194,-259.4093 602.5915,-264.3366"/>
<text text-anchor="middle" x="592.6456" y="-277.2" font-family="Times,serif" font-size="14.00" fill="#000000">F</text>
</g>
<!-- 17 -->
<g id="node22" class="node">
<title>17</title>
<polygon fill="#9bcd9b" stroke="#000000" points="475.7615,-182 325.7471,-182 325.7471,-146 475.7615,-146 475.7615,-182"/>
<text text-anchor="middle" x="400.7543" y="-159.8" font-family="Times,serif" font-size="14.00" fill="#000000">INVOKE_EXTERNAL</text>
</g>
<!-- 16&#45;&gt;17 -->
<g id="edge22" class="edge">
<title>16-&gt;17</title>
<path fill="none" stroke="#000000" d="M400.7543,-218.9551C400.7543,-210.8828 400.7543,-201.1764 400.7543,-192.1817"/>
<polygon fill="#000000" stroke="#000000" points="404.2544,-192.0903 400.7543,-182.0904 397.2544,-192.0904 404.2544,-192.0903"/>
</g>
<!-- 18 -->
<g id="node23" class="node">
<title>18</title>
<ellipse fill="none" stroke="#000000" cx="400.7543" cy="-91" rx="102.5092" ry="18"/>
<text text-anchor="middle" x="400.7543" y="-86.8" font-family="Times,serif" font-size="14.00" fill="#000000">INVOKE_SPLIT_FUN</text>
</g>
<!-- 17&#45;&gt;18 -->
<g id="edge23" class="edge">
<title>17-&gt;18</title>
<path fill="none" stroke="#000000" d="M400.7543,-145.9551C400.7543,-137.8828 400.7543,-128.1764 400.7543,-119.1817"/>
<polygon fill="#000000" stroke="#000000" points="404.2544,-119.0903 400.7543,-109.0904 397.2544,-119.0904 404.2544,-119.0903"/>
</g>
<!-- 19 -->
<g id="node24" class="node">
<title>19</title>
<ellipse fill="none" stroke="#000000" cx="400.7543" cy="-18" rx="49.8175" ry="18"/>
<text text-anchor="middle" x="400.7543" y="-13.8" font-family="Times,serif" font-size="14.00" fill="#000000">RETURN</text>
</g>
<!-- 18&#45;&gt;19 -->
<g id="edge24" class="edge">
<title>18-&gt;19</title>
<path fill="none" stroke="#000000" d="M400.7543,-72.9551C400.7543,-64.8828 400.7543,-55.1764 400.7543,-46.1817"/>
<polygon fill="#000000" stroke="#000000" points="404.2544,-46.0903 400.7543,-36.0904 397.2544,-46.0904 404.2544,-46.0903"/>
</g>
<!-- 15 -->
<g id="node26" class="node">
<title>15</title>
<ellipse fill="none" stroke="#000000" cx="624.7543" cy="-164" rx="49.8175" ry="18"/>
<text text-anchor="middle" x="624.7543" y="-159.8" font-family="Times,serif" font-size="14.00" fill="#000000">RETURN</text>
</g>
<!-- 14&#45;&gt;15 -->
<g id="edge25" class="edge">
<title>14-&gt;15</title>
<path fill="none" stroke="#000000" d="M624.7543,-218.9551C624.7543,-210.8828 624.7543,-201.1764 624.7543,-192.1817"/>
<polygon fill="#000000" stroke="#000000" points="628.2544,-192.0903 624.7543,-182.0904 621.2544,-192.0904 628.2544,-192.0903"/>
</g>
</g>
</svg>